<svg width="136" height="32" viewBox="0 0 136 32" fill="none" xmlns="http://www.w3.org/2000/svg">
<g clip-path="url(#clip0_2555_54874)">
<path d="M32.181 17.2542C32.181 17.2105 32.1639 17.1685 32.1333 17.1371C32.1027 17.1056 32.061 17.0873 32.017 17.086C31.977 17.0856 31.9382 17.0999 31.908 17.126C31.8778 17.1522 31.8583 17.1884 31.8531 17.2279C31.2701 19.6531 30.0471 21.8797 28.3104 23.6784C26.5737 25.477 24.386 26.7825 21.9728 27.4603C19.5597 28.1381 17.0084 28.1637 14.582 27.5344C12.1556 26.9051 9.94188 25.6437 8.16904 23.8803C6.3962 22.1168 5.12839 19.9151 4.4963 17.5022C3.86422 15.0892 3.89073 12.5523 4.57311 10.1529C5.25549 7.75351 6.56905 5.5785 8.37836 3.85208C10.1877 2.12567 12.4273 0.910312 14.8663 0.331307C14.8979 0.319779 14.9267 0.301873 14.9509 0.278718C14.9563 0.256245 14.9563 0.232826 14.9509 0.210353C14.9572 0.187115 14.9583 0.162818 14.9543 0.139102C14.9503 0.115385 14.9412 0.0927989 14.9277 0.0728653C14.9141 0.0529316 14.8965 0.0361135 14.8759 0.0235442C14.8552 0.010975 14.8321 0.00294657 14.8081 0C11.7433 0.249079 8.81416 1.36496 6.36649 3.2159C3.91882 5.06684 2.05484 7.57554 0.994641 10.4458C-0.0655618 13.3161 -0.277725 16.4281 0.3832 19.4144C1.04413 22.4007 2.55054 25.1366 4.72459 27.2991C6.89864 29.4616 9.64955 30.9604 12.6525 31.6185C15.6555 32.2767 18.7851 32.0666 21.672 31.0133C24.5588 29.9599 27.0822 28.1072 28.9443 25.6738C30.8065 23.2404 31.9296 20.3281 32.181 17.2805V17.2542Z" fill="#252C6D"/>
<path d="M12.116 23.1599C13.8977 23.1599 15.342 21.7237 15.342 19.952C15.342 18.1804 13.8977 16.7441 12.116 16.7441C10.3343 16.7441 8.89001 18.1804 8.89001 19.952C8.89001 21.7237 10.3343 23.1599 12.116 23.1599Z" fill="#252C6D"/>
<path d="M30.8004 12.5478C30.7968 10.2036 30.0505 7.92015 28.6675 6.02171C27.2845 4.12326 25.3352 2.70635 23.0963 1.97222C20.8574 1.23808 18.4429 1.22403 16.1955 1.93206C13.9482 2.6401 11.9823 4.03422 10.5771 5.91644C10.5565 5.94375 10.5453 5.97696 10.5453 6.0111C10.5453 6.05573 10.5632 6.09853 10.5949 6.13009C10.6267 6.16165 10.6697 6.17938 10.7146 6.17938C10.7431 6.17868 10.7707 6.16953 10.7939 6.15309C12.9215 4.99758 15.3685 4.55895 17.7679 4.90294C20.1674 5.24693 22.3901 6.35502 24.1028 8.06109C25.8155 9.76716 26.926 11.9793 27.2678 14.3659C27.6095 16.7524 27.1642 19.1849 25.9985 21.2985C25.9812 21.3232 25.972 21.3526 25.972 21.3827C25.972 21.4045 25.9764 21.4262 25.985 21.4463C25.9935 21.4664 26.0061 21.4846 26.0219 21.4998C26.0377 21.5151 26.0564 21.5269 26.0769 21.5348C26.0974 21.5427 26.1193 21.5464 26.1412 21.5457C26.1757 21.5465 26.2094 21.5354 26.2364 21.5141C27.6506 20.4798 28.8004 19.1294 29.5932 17.5719C30.386 16.0144 30.7995 14.2935 30.8004 12.5478Z" fill="#252C6D"/>
<path d="M52.4306 15.0503C52.4425 16.0937 52.2461 17.1291 51.8527 18.0965C51.4594 19.0639 50.8769 19.9441 50.1391 20.686C49.4013 21.428 48.5228 22.0171 47.5544 22.4191C46.5861 22.8211 45.5471 23.028 44.4978 23.028C42.8925 23.0562 41.3153 22.608 39.9675 21.7406C38.6196 20.8732 37.5624 19.626 36.9308 18.1582C36.2991 16.6905 36.1218 15.0689 36.4214 13.5005C36.721 11.9321 37.4839 10.4881 38.6127 9.35284C39.7416 8.21763 41.1851 7.44276 42.7589 7.1272C44.3327 6.81163 45.9653 6.96969 47.4484 7.58118C48.9314 8.19268 50.1975 9.22986 51.0849 10.5603C51.9723 11.8907 52.4408 13.4539 52.4306 15.0503ZM39.3679 15.0503C39.3366 15.7292 39.4441 16.4073 39.6838 17.0437C39.9236 17.6801 40.2905 18.2615 40.7626 18.7529C41.2347 19.2443 41.802 19.6354 42.4304 19.9027C43.0587 20.1699 43.735 20.3077 44.4184 20.3077C45.1018 20.3077 45.7782 20.1699 46.4065 19.9027C47.0349 19.6354 47.6022 19.2443 48.0743 18.7529C48.5463 18.2615 48.9133 17.6801 49.153 17.0437C49.3928 16.4073 49.5002 15.7292 49.469 15.0503C49.4873 14.3737 49.3705 13.7002 49.1254 13.0688C48.8804 12.4373 48.5119 11.8604 48.0413 11.3714C47.5707 10.8824 47.0072 10.491 46.3836 10.2198C45.7599 9.94865 45.0884 9.80306 44.4079 9.7915C41.642 9.75994 39.3679 11.895 39.3679 15.0503Z" fill="#252C6D"/>
<path d="M63.8009 23.0287H61.0032V17.6541C61.0032 15.5033 60.5855 14.1833 59.0306 14.1833C57.6397 14.1833 56.6296 15.314 56.6296 17.591V23.0287H53.8373V11.6223H56.6296V13.1999C57.066 12.7063 57.6028 12.3104 58.2045 12.0384C58.8062 11.7665 59.4591 11.6246 60.1201 11.6223C60.799 11.6043 61.4686 11.7825 62.0478 12.1354C62.627 12.4882 63.0908 13.0005 63.3831 13.6101C64.4091 12.3112 65.4403 11.6223 67.1221 11.6223C67.686 11.6033 68.2471 11.7102 68.7641 11.935C69.2812 12.1597 69.7411 12.4967 70.1101 12.9212C70.8452 13.8362 70.9298 15.051 70.9298 16.513V23.0287H68.1322V16.9021C68.1322 15.0826 67.4817 14.1833 66.2177 14.1833C64.811 14.1833 63.8009 15.2719 63.8009 17.549V23.0287Z" fill="#252C6D"/>
<path d="M75.9011 8.83501C75.9011 9.30643 75.7128 9.75854 75.3775 10.0919C75.0423 10.4252 74.5876 10.6125 74.1136 10.6125C73.6207 10.5933 73.1556 10.3804 72.8204 10.0205C72.4852 9.66064 72.3074 9.18318 72.326 8.69303C72.3308 8.4649 72.381 8.23996 72.4735 8.03118C72.5661 7.82239 72.6993 7.63387 72.8654 7.47648C73.0316 7.31909 73.2274 7.19594 73.4416 7.11411C73.6558 7.03228 73.8842 6.99339 74.1136 6.99968C74.3522 7.0031 74.5879 7.05334 74.807 7.14749C75.0261 7.24165 75.2244 7.37789 75.3904 7.54839C75.5565 7.71889 75.6871 7.92031 75.7747 8.1411C75.8623 8.36188 75.9053 8.59769 75.9011 8.83501ZM72.728 11.6222H75.5256V23.0286H72.728V11.6222Z" fill="#252C6D"/>
<path d="M128.871 13.0681C129.929 12.1688 130.928 11.6482 132.171 11.6482C132.678 11.6306 133.184 11.7169 133.656 11.9017C134.128 12.0865 134.557 12.3658 134.916 12.7224C135.275 13.0789 135.557 13.5051 135.743 13.9744C135.93 14.4436 136.017 14.946 136 15.4503V23.0441H133.202V17.7853C133.202 15.5871 133.012 14.1882 131.309 14.1882C130.929 14.185 130.554 14.2802 130.222 14.4646C129.89 14.6491 129.612 14.9163 129.416 15.24C128.85 16.1393 128.887 17.1384 128.887 18.2901V23.0231H126.089V11.6377H128.887L128.871 13.0681Z" fill="#252C6D"/>
<path opacity="0.1" d="M85.0925 9.72363H83.6858V20.2991H85.0925V9.72363Z" fill="#252C6D"/>
<path d="M102.666 13.0579C103.101 12.5939 103.629 12.2254 104.215 11.9764C104.802 11.7273 105.434 11.6031 106.072 11.6118C108.912 11.6118 111.276 13.9256 111.276 17.3439C111.276 20.7621 108.817 23.0602 106.014 23.0602C105.388 23.0724 104.767 22.9536 104.19 22.7117C103.614 22.4699 103.094 22.1102 102.666 21.6561V25.8211H99.8528V11.6223H102.666V13.0579ZM102.487 17.3018C102.487 19.2844 103.814 20.5833 105.512 20.5833C107.209 20.5833 108.5 19.2002 108.5 17.3228C108.5 15.5296 107.336 14.0887 105.512 14.0887C103.687 14.0887 102.487 15.3876 102.487 17.3018Z" fill="#252C6D"/>
<path d="M82.2843 7.69922H85.0873V18.2484C85.0873 19.6946 84.9603 20.8095 84.3098 21.7088C83.9736 22.1413 83.5376 22.487 83.0387 22.7167C82.5398 22.9465 81.9927 23.0535 81.4435 23.0287C80.6385 23.0186 79.8468 22.8234 79.1303 22.4585C78.4137 22.0936 77.7918 21.5688 77.3131 20.9252L79.328 19.0425C80.005 19.7735 80.6184 20.3046 81.3959 20.3046C82.0305 20.3046 82.2949 19.7788 82.2949 18.727L82.2843 7.69922Z" fill="#252C6D"/>
<path d="M121.213 21.5617C120.784 22.018 120.263 22.3805 119.685 22.6258C119.107 22.8712 118.484 22.9941 117.855 22.9868C115.094 22.9868 112.683 20.6308 112.683 17.3125C112.683 13.9942 114.973 11.6172 117.797 11.6172C118.437 11.6158 119.071 11.7454 119.658 11.9978C120.246 12.2502 120.775 12.62 121.213 13.0844V11.6382H123.932V23.0236H121.213V21.5617ZM115.422 17.2915C115.422 19.1426 116.649 20.5046 118.347 20.5046C120.044 20.5046 121.335 19.2478 121.335 17.2704C121.335 15.3825 120.066 14.1151 118.347 14.1151C116.549 14.1204 115.422 15.5455 115.422 17.3125V17.2915Z" fill="#252C6D"/>
<path d="M95.0138 21.5617C94.5857 22.0184 94.0662 22.3811 93.4888 22.6266C92.9114 22.872 92.2888 22.9947 91.6609 22.9868C88.9003 22.9868 86.4887 20.6308 86.4887 17.3125C86.4887 13.9942 88.7787 11.6172 91.6027 11.6172C92.2422 11.6153 92.8752 11.7446 93.4622 11.9971C94.0491 12.2495 94.5773 12.6197 95.0138 13.0844V11.6382H97.7374V23.0236H95.0138V21.5617ZM89.2282 17.2915C89.2282 19.1426 90.4551 20.5046 92.1527 20.5046C93.8504 20.5046 95.1408 19.2478 95.1408 17.2705C95.1408 15.3825 93.8715 14.1152 92.1527 14.1152C90.3546 14.1204 89.2282 15.5456 89.2282 17.3125V17.2915Z" fill="#252C6D"/>
</g>
<defs>
<clipPath id="clip0_2555_54874">
<rect width="136" height="32" fill="white"/>
</clipPath>
</defs>
</svg>
