<?xml version="1.0" encoding="utf-8"?>
<!-- Generator: Adobe Illustrator 16.0.0, SVG Export Plug-In . SVG Version: 6.00 Build 0)  -->
<!DOCTYPE svg PUBLIC "-//W3C//DTD SVG 1.1//EN" "http://www.w3.org/Graphics/SVG/1.1/DTD/svg11.dtd">
<svg version="1.1" id="Layer_1" xmlns="http://www.w3.org/2000/svg" xmlns:xlink="http://www.w3.org/1999/xlink" x="0px" y="0px"
	 width="42px" height="40px" viewBox="0 0 42 40" enable-background="new 0 0 42 40" xml:space="preserve">
<g>
	<defs>
		<path id="SVGID_1_" d="M38.161,16.842H21.979v6.71h9.314c-0.868,4.263-4.499,6.71-9.314,6.71c-5.684,0-10.263-4.579-10.263-10.263
			S16.294,9.738,21.979,9.738c2.447,0,4.657,0.868,6.394,2.289l5.052-5.052c-3.078-2.684-7.024-4.342-11.445-4.342
			C12.347,2.633,4.611,10.369,4.611,20s7.736,17.367,17.368,17.367c8.683,0,16.577-6.315,16.577-17.367
			C38.556,18.974,38.397,17.869,38.161,16.842z"/>
	</defs>
	<clipPath id="SVGID_2_">
		<use xlink:href="#SVGID_1_"  overflow="visible"/>
	</clipPath>
	<path clip-path="url(#SVGID_2_)" fill="#FBBC05" d="M3.032,30.263V9.738L16.452,20L3.032,30.263z"/>
</g>
<g>
	<defs>
		<path id="SVGID_3_" d="M38.161,16.842H21.979v6.71h9.314c-0.868,4.263-4.499,6.71-9.314,6.71c-5.684,0-10.263-4.579-10.263-10.263
			S16.294,9.738,21.979,9.738c2.447,0,4.657,0.868,6.394,2.289l5.052-5.052c-3.078-2.684-7.024-4.342-11.445-4.342
			C12.347,2.633,4.611,10.369,4.611,20s7.736,17.367,17.368,17.367c8.683,0,16.577-6.315,16.577-17.367
			C38.556,18.974,38.397,17.869,38.161,16.842z"/>
	</defs>
	<clipPath id="SVGID_4_">
		<use xlink:href="#SVGID_3_"  overflow="visible"/>
	</clipPath>
	<path clip-path="url(#SVGID_4_)" fill="#EA4335" d="M3.032,9.738L16.452,20l5.526-4.815l18.945-3.079V1.054H3.032V9.738z"/>
</g>
<g>
	<defs>
		<path id="SVGID_5_" d="M38.161,16.842H21.979v6.71h9.314c-0.868,4.263-4.499,6.71-9.314,6.71c-5.684,0-10.263-4.579-10.263-10.263
			S16.294,9.738,21.979,9.738c2.447,0,4.657,0.868,6.394,2.289l5.052-5.052c-3.078-2.684-7.024-4.342-11.445-4.342
			C12.347,2.633,4.611,10.369,4.611,20s7.736,17.367,17.368,17.367c8.683,0,16.577-6.315,16.577-17.367
			C38.556,18.974,38.397,17.869,38.161,16.842z"/>
	</defs>
	<clipPath id="SVGID_6_">
		<use xlink:href="#SVGID_5_"  overflow="visible"/>
	</clipPath>
	<path clip-path="url(#SVGID_6_)" fill="#34A853" d="M3.032,30.263l23.683-18.157l6.235,0.79l7.974-11.841v37.892H3.032V30.263z"/>
</g>
<g>
	<defs>
		<path id="SVGID_7_" d="M38.161,16.842H21.979v6.71h9.314c-0.868,4.263-4.499,6.71-9.314,6.71c-5.684,0-10.263-4.579-10.263-10.263
			S16.294,9.738,21.979,9.738c2.447,0,4.657,0.868,6.394,2.289l5.052-5.052c-3.078-2.684-7.024-4.342-11.445-4.342
			C12.347,2.633,4.611,10.369,4.611,20s7.736,17.367,17.368,17.367c8.683,0,16.577-6.315,16.577-17.367
			C38.556,18.974,38.397,17.869,38.161,16.842z"/>
	</defs>
	<clipPath id="SVGID_8_">
		<use xlink:href="#SVGID_7_"  overflow="visible"/>
	</clipPath>
	<path clip-path="url(#SVGID_8_)" fill="#4285F4" d="M40.924,38.946L16.452,20l-3.158-2.368l27.629-7.894V38.946z"/>
</g>
</svg>
